<?xml version="1.0" encoding="UTF-8" standalone="no"?>
<svg width="16px" height="15px" viewBox="0 0 16 15" version="1.1" xmlns="http://www.w3.org/2000/svg" xmlns:xlink="http://www.w3.org/1999/xlink">
    <!-- Generator: Sketch 3.7.2 (28276) - http://www.bohemiancoding.com/sketch -->
    <title>flag - FontAwesome</title>
    <desc>Created with Sketch.</desc>
    <defs></defs>
    <g id="Page-1" stroke="none" stroke-width="1" fill="none" fill-rule="evenodd">
        <g id="timeline" transform="translate(-291.000000, -1881.000000)" fill="#9197A3">
            <g id="Group-7-Copy-2" transform="translate(46.000000, 1877.000000)">
                <path d="M247.857143,6.0214301 C247.857143,6.45000367 247.666669,6.77738135 247.285714,7.00357295 L247.285714,18.3071444 C247.285714,18.3845257 247.257441,18.4514893 247.200893,18.5080372 C247.144345,18.5645851 247.077381,18.5928587 247,18.5928587 L246.428571,18.5928587 C246.35119,18.5928587 246.284226,18.5645851 246.227679,18.5080372 C246.171131,18.4514893 246.142857,18.3845257 246.142857,18.3071444 L246.142857,7.00357295 C245.761903,6.77738135 245.571429,6.45000367 245.571429,6.0214301 C245.571429,5.70595233 245.683035,5.43660978 245.90625,5.21339438 C246.129465,4.99017898 246.398808,4.87857295 246.714286,4.87857295 C247.029763,4.87857295 247.299106,4.99017898 247.522321,5.21339438 C247.745537,5.43660978 247.857143,5.70595233 247.857143,6.0214301 L247.857143,6.0214301 Z M261,6.59285867 L261,13.4053587 C261,13.5541689 260.962798,13.6687511 260.888393,13.7491087 C260.813988,13.8294662 260.696429,13.9113106 260.535714,13.9946444 C259.255946,14.685124 258.157743,15.0303587 257.241071,15.0303587 C256.877974,15.0303587 256.510419,14.9648831 256.138393,14.8339301 C255.766367,14.7029771 255.443454,14.5601213 255.169643,14.4053587 C254.895832,14.250596 254.552085,14.1077403 254.138393,13.9767872 C253.7247,13.8458342 253.300597,13.7803587 252.866071,13.7803587 C251.723209,13.7803587 250.34227,14.2148781 248.723214,15.0839301 C248.622023,15.1375018 248.52381,15.1642872 248.428571,15.1642872 C248.273809,15.1642872 248.139882,15.1077402 248.026786,14.9946444 C247.91369,14.8815486 247.857143,14.7476213 247.857143,14.5928587 L247.857143,7.96785867 C247.857143,7.77738153 247.949404,7.61369269 248.133929,7.47678724 C248.258929,7.39345349 248.494046,7.26547858 248.839286,7.09285867 C250.244055,6.37856938 251.497018,6.0214301 252.598214,6.0214301 C253.235122,6.0214301 253.830354,6.10773876 254.383929,6.28035867 C254.937503,6.45297858 255.589282,6.71488072 256.339286,7.06607295 C256.565477,7.17916876 256.827379,7.23571581 257.125,7.23571581 C257.44643,7.23571581 257.796129,7.17321644 258.174107,7.04821581 C258.552085,6.92321519 258.879463,6.78333563 259.15625,6.62857295 C259.433037,6.47381028 259.694939,6.33393072 259.941964,6.2089301 C260.188989,6.08392947 260.35119,6.0214301 260.428571,6.0214301 C260.583334,6.0214301 260.717261,6.07797715 260.830357,6.19107295 C260.943453,6.30416876 261,6.43809599 261,6.59285867 L261,6.59285867 Z" id="flag---FontAwesome"></path>
            </g>
        </g>
    </g>
</svg>