<?xml version="1.0" encoding="UTF-8" standalone="no"?>
<svg width="18px" height="17px" viewBox="0 0 18 17" version="1.1" xmlns="http://www.w3.org/2000/svg" xmlns:xlink="http://www.w3.org/1999/xlink">
    <!-- Generator: Sketch 3.7.2 (28276) - http://www.bohemiancoding.com/sketch -->
    <title>users - FontAwesome</title>
    <desc>Created with Sketch.</desc>
    <defs></defs>
    <g id="Page-1" stroke="none" stroke-width="1" fill="none" fill-rule="evenodd">
        <g id="timeline" transform="translate(-290.000000, -1115.000000)" fill="#9197A3">
            <g id="Group-7" transform="translate(46.000000, 1112.000000)">
                <path d="M249.723214,11.285715 C248.758924,11.3154771 247.970241,11.6964257 247.357143,12.4285722 L246.160714,12.4285722 C245.672617,12.4285722 245.261906,12.3080377 244.928571,12.066965 C244.595236,11.8258924 244.428571,11.4732174 244.428571,11.0089293 C244.428571,8.90772835 244.797615,7.85714362 245.535714,7.85714362 C245.571429,7.85714362 245.700892,7.919643 245.924107,8.04464362 C246.147323,8.16964425 246.437498,8.29613108 246.794643,8.42410791 C247.151788,8.55208474 247.505951,8.61607219 247.857143,8.61607219 C248.255954,8.61607219 248.651784,8.5476205 249.044643,8.41071505 C249.014881,8.63095425 249,8.82738085 249,9.00000076 C249,9.82738585 249.241069,10.589283 249.723214,11.285715 L249.723214,11.285715 Z M259.285714,16.973215 C259.285714,17.6875043 259.068455,18.2514868 258.633929,18.6651793 C258.199403,19.0788719 257.622027,19.285715 256.901786,19.285715 L249.098214,19.285715 C248.377973,19.285715 247.800597,19.0788719 247.366071,18.6651793 C246.931545,18.2514868 246.714286,17.6875043 246.714286,16.973215 C246.714286,16.6577373 246.724702,16.3497046 246.745536,16.0491079 C246.766369,15.7485112 246.808035,15.4241096 246.870536,15.0758936 C246.933036,14.7276776 247.011904,14.4047642 247.107143,14.1071436 C247.202381,13.8095231 247.330356,13.5193474 247.491071,13.2366079 C247.651787,12.9538684 247.836308,12.7127994 248.044643,12.5133936 C248.252977,12.3139879 248.507439,12.1547633 248.808036,12.035715 C249.108632,11.9166668 249.440474,11.8571436 249.803571,11.8571436 C249.863096,11.8571436 249.99107,11.9211311 250.1875,12.0491079 C250.38393,12.1770847 250.601189,12.3199405 250.839286,12.4776793 C251.077382,12.6354182 251.395831,12.7782739 251.794643,12.9062508 C252.193454,13.0342276 252.595236,13.098215 253,13.098215 C253.404764,13.098215 253.806546,13.0342276 254.205357,12.9062508 C254.604169,12.7782739 254.922618,12.6354182 255.160714,12.4776793 C255.398811,12.3199405 255.61607,12.1770847 255.8125,12.0491079 C256.00893,11.9211311 256.136904,11.8571436 256.196429,11.8571436 C256.559526,11.8571436 256.891368,11.9166668 257.191964,12.035715 C257.492561,12.1547633 257.747023,12.3139879 257.955357,12.5133936 C258.163692,12.7127994 258.348213,12.9538684 258.508929,13.2366079 C258.669644,13.5193474 258.797619,13.8095231 258.892857,14.1071436 C258.988096,14.4047642 259.066964,14.7276776 259.129464,15.0758936 C259.191965,15.4241096 259.233631,15.7485112 259.254464,16.0491079 C259.275298,16.3497046 259.285714,16.6577373 259.285714,16.973215 L259.285714,16.973215 Z M250.142857,5.57142933 C250.142857,6.20238487 249.919645,6.74106996 249.473214,7.18750076 C249.026783,7.63393157 248.488098,7.85714362 247.857143,7.85714362 C247.226187,7.85714362 246.687502,7.63393157 246.241071,7.18750076 C245.794641,6.74106996 245.571429,6.20238487 245.571429,5.57142933 C245.571429,4.9404738 245.794641,4.40178871 246.241071,3.95535791 C246.687502,3.5089271 247.226187,3.28571505 247.857143,3.28571505 C248.488098,3.28571505 249.026783,3.5089271 249.473214,3.95535791 C249.919645,4.40178871 250.142857,4.9404738 250.142857,5.57142933 L250.142857,5.57142933 Z M256.428571,9.00000076 C256.428571,9.94643407 256.093753,10.7544617 255.424107,11.4241079 C254.754461,12.0937541 253.946433,12.4285722 253,12.4285722 C252.053567,12.4285722 251.245539,12.0937541 250.575893,11.4241079 C249.906247,10.7544617 249.571429,9.94643407 249.571429,9.00000076 C249.571429,8.05356746 249.906247,7.24553983 250.575893,6.57589362 C251.245539,5.90624741 252.053567,5.57142933 253,5.57142933 C253.946433,5.57142933 254.754461,5.90624741 255.424107,6.57589362 C256.093753,7.24553983 256.428571,8.05356746 256.428571,9.00000076 L256.428571,9.00000076 Z M261.571429,11.0089293 C261.571429,11.4732174 261.404764,11.8258924 261.071429,12.066965 C260.738094,12.3080377 260.327383,12.4285722 259.839286,12.4285722 L258.642857,12.4285722 C258.029759,11.6964257 257.241076,11.3154771 256.276786,11.285715 C256.758931,10.589283 257,9.82738585 257,9.00000076 C257,8.82738085 256.985119,8.63095425 256.955357,8.41071505 C257.348216,8.5476205 257.744046,8.61607219 258.142857,8.61607219 C258.494049,8.61607219 258.848212,8.55208474 259.205357,8.42410791 C259.562502,8.29613108 259.852677,8.16964425 260.075893,8.04464362 C260.299108,7.919643 260.428571,7.85714362 260.464286,7.85714362 C261.202385,7.85714362 261.571429,8.90772835 261.571429,11.0089293 L261.571429,11.0089293 Z M260.428571,5.57142933 C260.428571,6.20238487 260.205359,6.74106996 259.758929,7.18750076 C259.312498,7.63393157 258.773813,7.85714362 258.142857,7.85714362 C257.511902,7.85714362 256.973217,7.63393157 256.526786,7.18750076 C256.080355,6.74106996 255.857143,6.20238487 255.857143,5.57142933 C255.857143,4.9404738 256.080355,4.40178871 256.526786,3.95535791 C256.973217,3.5089271 257.511902,3.28571505 258.142857,3.28571505 C258.773813,3.28571505 259.312498,3.5089271 259.758929,3.95535791 C260.205359,4.40178871 260.428571,4.9404738 260.428571,5.57142933 L260.428571,5.57142933 Z" id="users---FontAwesome"></path>
            </g>
        </g>
    </g>
</svg>